<svg xmlns="http://www.w3.org/2000/svg" viewBox="0 0 1200 620" role="img" aria-labelledby="title desc">
  <title id="title">Bank Loan Report Dashboard preview</title>
  <desc id="desc">A stylized fintech loan analytics dashboard with KPI cards and loan performance charts.</desc>
  <defs>
    <linearGradient id="panel" x1="0" x2="1">
      <stop offset="0" stop-color="#1d3b5a"/>
      <stop offset="1" stop-color="#213f60"/>
    </linearGradient>
  </defs>
  <rect width="1200" height="620" fill="#020405"/>
  <rect x="0" y="0" width="1200" height="620" fill="#203b59"/>
  <rect x="0" y="0" width="1200" height="50" fill="#213d5b"/>
  <text x="382" y="38" fill="#fff" font-family="Arial, Helvetica, sans-serif" font-size="34" font-weight="800">BANK LOAN REPORT</text>
  <text x="690" y="38" fill="#21b8f2" font-family="Arial, Helvetica, sans-serif" font-size="34" font-weight="800">SUMMARY</text>

  <g font-family="Arial, Helvetica, sans-serif">
    <rect x="22" y="62" width="180" height="540" fill="#1a3553"/>
    <rect x="45" y="178" width="112" height="31" fill="#ff120f"/>
    <rect x="45" y="230" width="112" height="31" fill="#616161" stroke="#bbb"/>
    <rect x="45" y="284" width="112" height="31" fill="#616161" stroke="#bbb"/>
    <text x="74" y="198" fill="#fff" font-size="13" font-weight="700">Summary</text>
    <text x="75" y="250" fill="#fff" font-size="13" font-weight="700">Overview</text>
    <text x="82" y="304" fill="#fff" font-size="13" font-weight="700">Details</text>
    <rect x="42" y="360" width="140" height="118" fill="#fff"/>
    <text x="52" y="378" fill="#000" font-size="14" font-weight="700">grade</text>
    <g fill="#4f83c1">
      <rect x="52" y="394" width="44" height="24" rx="3"/>
      <rect x="100" y="394" width="44" height="24" rx="3"/>
      <rect x="148" y="394" width="28" height="24" rx="3"/>
      <rect x="52" y="424" width="44" height="24" rx="3"/>
      <rect x="100" y="424" width="44" height="24" rx="3"/>
      <rect x="148" y="424" width="28" height="24" rx="3"/>
      <rect x="52" y="454" width="44" height="24" rx="3"/>
    </g>
  </g>

  <g font-family="Arial, Helvetica, sans-serif">
    <rect x="218" y="72" width="184" height="116" rx="6" fill="#a24d04"/>
    <rect x="414" y="72" width="184" height="116" rx="6" fill="#203b59"/>
    <rect x="610" y="72" width="184" height="116" rx="6" fill="#203b59"/>
    <rect x="806" y="72" width="184" height="116" rx="6" fill="#203b59"/>
    <rect x="1002" y="72" width="184" height="116" rx="6" fill="#203b59"/>
    <g fill="#91c3f5" font-size="14">
      <text x="258" y="94">Total Loan Applications</text>
      <text x="450" y="94">Total Funded Amount</text>
      <text x="645" y="94">Total Amount Received</text>
      <text x="845" y="94">Avg Interest Rate</text>
      <text x="1068" y="94">Avg DTI</text>
    </g>
    <g fill="#fff" font-size="28" font-weight="800">
      <text x="268" y="136">38.6K</text>
      <text x="442" y="136">$435.8M</text>
      <text x="638" y="136">$473.1M</text>
      <text x="842" y="136">12.05%</text>
      <text x="1048" y="136">13.33%</text>
    </g>
    <g fill="#ff8400" font-size="14">
      <text x="240" y="166">MTD</text><text x="340" y="166">MoM</text>
      <text x="440" y="166">MTD</text><text x="550" y="166">MoM</text>
      <text x="632" y="166">MTD</text><text x="742" y="166">MoM</text>
      <text x="830" y="166">MTD</text><text x="938" y="166">MoM</text>
      <text x="1038" y="166">MTD</text><text x="1138" y="166">MoM</text>
    </g>
  </g>

  <g font-family="Arial, Helvetica, sans-serif">
    <rect x="218" y="218" width="484" height="242" rx="14" fill="url(#panel)"/>
    <text x="262" y="244" fill="#99c7f7" font-size="18">Good Loans Issued</text>
    <circle cx="340" cy="354" r="76" fill="none" stroke="#ffc400" stroke-width="24"/>
    <circle cx="340" cy="354" r="76" fill="none" stroke="#9b9b9b" stroke-width="24" stroke-dasharray="70 420"/>
    <text x="292" y="364" fill="#ffc400" font-size="31">86.18%</text>
    <rect x="470" y="242" width="220" height="62" rx="4" fill="#3b6598"/>
    <rect x="470" y="320" width="220" height="62" rx="4" fill="#3b6598"/>
    <rect x="470" y="398" width="220" height="44" rx="4" fill="#3b6598"/>
    <text x="486" y="270" fill="#9ecbff" font-size="15">Good Loan Total Applications</text>
    <text x="486" y="292" fill="#ffc400" font-size="26">33.2K</text>
    <text x="486" y="348" fill="#9ecbff" font-size="15">Good Loan Funded Amount</text>
    <text x="486" y="372" fill="#ffc400" font-size="26">$370.2M</text>
    <text x="486" y="426" fill="#9ecbff" font-size="15">Good Loan Received</text>

    <rect x="710" y="218" width="470" height="242" rx="14" fill="url(#panel)"/>
    <text x="764" y="244" fill="#99c7f7" font-size="18">Bad Loans Issued</text>
    <circle cx="835" cy="354" r="76" fill="none" stroke="#929292" stroke-width="24"/>
    <circle cx="835" cy="354" r="76" fill="none" stroke="#91c3f5" stroke-width="24" stroke-dasharray="58 420"/>
    <text x="790" y="364" fill="#91c3f5" font-size="31">13.82%</text>
    <rect x="950" y="242" width="220" height="62" rx="4" fill="#bf4f50"/>
    <rect x="950" y="320" width="220" height="62" rx="4" fill="#bf4f50"/>
    <rect x="950" y="398" width="220" height="44" rx="4" fill="#bf4f50"/>
    <text x="966" y="270" fill="#9ecbff" font-size="15">Bad Loan Total Applications</text>
    <text x="966" y="292" fill="#9ecbff" font-size="26">5.3K</text>
    <text x="966" y="348" fill="#9ecbff" font-size="15">Bad Loan Funded Amount</text>
    <text x="966" y="372" fill="#9ecbff" font-size="26">$65.5M</text>
  </g>

  <g font-family="Arial, Helvetica, sans-serif">
    <rect x="218" y="468" width="962" height="130" rx="10" fill="#203b59"/>
    <g fill="#9ecbff" font-size="18">
      <text x="255" y="500">Loan Applications</text>
      <text x="430" y="500">Funded Amount</text>
      <text x="625" y="500">Amount Received</text>
      <text x="808" y="500">Interest Rate</text>
      <text x="1068" y="500">DTI</text>
    </g>
    <g fill="#fff" font-size="13">
      <text x="246" y="536">Fully Paid</text>
      <text x="246" y="568">Charged Off</text>
      <text x="246" y="592">Current</text>
    </g>
    <rect x="306" y="524" width="78" height="18" fill="#f6be89"/>
    <rect x="306" y="556" width="14" height="18" fill="#f6be89"/>
    <rect x="432" y="524" width="100" height="18" fill="#78963d"/>
    <rect x="432" y="556" width="18" height="18" fill="#78963d"/>
    <rect x="610" y="524" width="130" height="18" fill="#18aee0"/>
    <rect x="610" y="556" width="12" height="18" fill="#18aee0"/>
    <rect x="806" y="524" width="110" height="18" fill="#f17700"/>
    <rect x="806" y="556" width="132" height="18" fill="#f17700"/>
    <rect x="994" y="524" width="76" height="18" fill="#c4d99b"/>
    <rect x="994" y="556" width="150" height="18" fill="#c4d99b"/>
  </g>
</svg>
