<svg xmlns="http://www.w3.org/2000/svg" viewBox="0 0 1200 675" role="img" aria-labelledby="title desc">
  <title id="title">HR Analytics Dashboard preview</title>
  <desc id="desc">A stylized HR analytics dashboard with KPI cards, charts, and matrix visuals.</desc>
  <defs>
    <linearGradient id="bg" x1="0" x2="1" y1="0" y2="1">
      <stop offset="0" stop-color="#071019"/>
      <stop offset="0.48" stop-color="#19324e"/>
      <stop offset="1" stop-color="#3b6095"/>
    </linearGradient>
    <linearGradient id="blue" x1="0" x2="1">
      <stop offset="0" stop-color="#152739"/>
      <stop offset="1" stop-color="#365c94"/>
    </linearGradient>
    <linearGradient id="bar" x1="0" x2="0" y1="0" y2="1">
      <stop offset="0" stop-color="#e4a7d1"/>
      <stop offset="1" stop-color="#8c5c98"/>
    </linearGradient>
  </defs>
  <rect width="1200" height="675" fill="url(#bg)"/>
  <rect x="0" y="0" width="1200" height="64" fill="#102338" opacity="0.95"/>
  <text x="24" y="48" fill="#ffffff" font-family="Arial, Helvetica, sans-serif" font-size="46" font-weight="700">HR ANALYTICS DASHBOARD</text>
  <text x="858" y="24" fill="#ffffff" font-family="Arial, Helvetica, sans-serif" font-size="14" font-weight="700">Education</text>
  <rect x="858" y="31" width="122" height="22" fill="#ffffff"/>
  <text x="864" y="48" fill="#1c2936" font-family="Arial, Helvetica, sans-serif" font-size="13">(All)</text>

  <g font-family="Arial, Helvetica, sans-serif">
    <rect x="0" y="78" width="1040" height="118" fill="url(#blue)" opacity="0.92"/>
    <rect x="1048" y="78" width="150" height="118" fill="#31568d" opacity="0.92"/>
    <g fill="#ffd95c" font-size="22" font-weight="700">
      <text x="36" y="112">Employee Count</text>
      <text x="255" y="112">Attrition Count</text>
      <text x="462" y="112">Attrition Rate</text>
      <text x="640" y="112">Active Employees</text>
      <text x="890" y="112">Avg. Age</text>
    </g>
    <g fill="#ffffff" font-size="42" font-weight="700">
      <text x="58" y="170">1,470</text>
      <text x="296" y="170">237</text>
      <text x="460" y="170">16.12%</text>
      <text x="673" y="170">1,233</text>
      <text x="910" y="170">37</text>
    </g>
    <text x="1058" y="112" fill="#ffd95c" font-size="17" font-weight="700">Attrition by Gender</text>
    <text x="1078" y="152" fill="#fff" font-size="14">Female</text>
    <rect x="1128" y="139" width="48" height="15" fill="#ffb966"/>
    <circle cx="1178" cy="146" r="18" fill="#ffb966"/>
    <text x="1088" y="188" fill="#fff" font-size="14">Male</text>
    <rect x="1128" y="174" width="74" height="15" fill="#9a65c9"/>
  </g>

  <g font-family="Arial, Helvetica, sans-serif">
    <rect x="0" y="206" width="352" height="300" fill="#0c1724" opacity="0.92"/>
    <text x="16" y="238" fill="#ffd95c" font-size="20" font-weight="700">Department Wise Attrition</text>
    <circle cx="178" cy="354" r="86" fill="#6da1cc"/>
    <path d="M178 354 L178 268 A86 86 0 0 1 253 397 Z" fill="#9ec9e6"/>
    <path d="M178 354 L253 397 A86 86 0 0 1 112 420 Z" fill="#315f8e"/>
    <g fill="#fff" font-size="13">
      <text x="28" y="478">HR</text>
      <text x="28" y="498">R&amp;D</text>
      <text x="28" y="518">Sales</text>
    </g>
    <rect x="14" y="466" width="12" height="12" fill="#9ec9e6"/>
    <rect x="14" y="486" width="12" height="12" fill="#6da1cc"/>
    <rect x="14" y="506" width="12" height="12" fill="#315f8e"/>

    <rect x="360" y="206" width="420" height="300" fill="#1a2b44" opacity="0.92"/>
    <text x="374" y="238" fill="#ffd95c" font-size="20" font-weight="700">No of Employee by Age Group</text>
    <g fill="url(#bar)">
      <rect x="386" y="432" width="22" height="42"/>
      <rect x="416" y="416" width="22" height="58"/>
      <rect x="446" y="382" width="22" height="92"/>
      <rect x="476" y="340" width="22" height="134"/>
      <rect x="506" y="316" width="22" height="158"/>
      <rect x="536" y="296" width="22" height="178"/>
      <rect x="566" y="326" width="22" height="148"/>
      <rect x="596" y="366" width="22" height="108"/>
      <rect x="626" y="390" width="22" height="84"/>
      <rect x="656" y="416" width="22" height="58"/>
      <rect x="686" y="438" width="22" height="36"/>
    </g>
    <line x1="374" y1="474" x2="732" y2="474" stroke="#8da3bd" stroke-width="1"/>

    <rect x="790" y="206" width="408" height="300" fill="#31568d" opacity="0.92"/>
    <text x="805" y="238" fill="#ffd95c" font-size="20" font-weight="700">Job Satisfaction Rating</text>
    <g font-size="13" font-weight="700">
      <text x="807" y="286" fill="#fff">Job Role</text>
      <text x="955" y="286" fill="#ffd95c">1</text>
      <text x="1012" y="286" fill="#ffd95c">2</text>
      <text x="1068" y="286" fill="#ffd95c">3</text>
      <text x="1125" y="286" fill="#ffd95c">4</text>
    </g>
    <g>
      <rect x="930" y="296" width="224" height="22" fill="#acd5ed"/>
      <rect x="930" y="322" width="224" height="22" fill="#8fc1df"/>
      <rect x="930" y="348" width="224" height="22" fill="#6da1cc"/>
      <rect x="930" y="374" width="224" height="22" fill="#5590bf"/>
      <rect x="930" y="400" width="224" height="22" fill="#acd5ed"/>
      <rect x="930" y="426" width="224" height="22" fill="#6da1cc"/>
    </g>
    <g fill="#fff" font-size="13">
      <text x="807" y="313">Healthcare Rep.</text>
      <text x="807" y="339">Human Resources</text>
      <text x="807" y="365">Laboratory Tech.</text>
      <text x="807" y="391">Manager</text>
      <text x="807" y="417">Research Scientist</text>
      <text x="807" y="443">Sales Executive</text>
    </g>

    <rect x="0" y="518" width="340" height="150" fill="#101820" opacity="0.95"/>
    <text x="16" y="546" fill="#ffd95c" font-size="19" font-weight="700">Education Field wise Attrition</text>
    <rect x="116" y="568" width="190" height="20" fill="#40ff00"/>
    <rect x="116" y="602" width="142" height="20" fill="#40ff00"/>
    <rect x="116" y="636" width="76" height="20" fill="#40ff00"/>
    <g fill="#fff" font-size="13">
      <text x="40" y="583">Life Sciences</text>
      <text x="68" y="617">Medical</text>
      <text x="58" y="651">Marketing</text>
    </g>

    <rect x="350" y="518" width="848" height="150" fill="#31568d" opacity="0.92"/>
    <text x="366" y="546" fill="#ffd95c" font-size="19" font-weight="700">Attrition Rate by Gender for Different Age Group</text>
    <g>
      <circle cx="472" cy="604" r="34" fill="none" stroke="#9a65c9" stroke-width="18"/>
      <circle cx="472" cy="604" r="34" fill="none" stroke="#ffb966" stroke-width="18" stroke-dasharray="65 150"/>
      <circle cx="650" cy="604" r="34" fill="none" stroke="#9a65c9" stroke-width="18"/>
      <circle cx="650" cy="604" r="34" fill="none" stroke="#ffb966" stroke-width="18" stroke-dasharray="48 150"/>
      <circle cx="828" cy="604" r="34" fill="none" stroke="#9a65c9" stroke-width="18"/>
      <circle cx="828" cy="604" r="34" fill="none" stroke="#ffb966" stroke-width="18" stroke-dasharray="42 150"/>
      <circle cx="1006" cy="604" r="34" fill="none" stroke="#9a65c9" stroke-width="18"/>
      <circle cx="1006" cy="604" r="34" fill="none" stroke="#ffb966" stroke-width="18" stroke-dasharray="58 150"/>
    </g>
  </g>
</svg>
